<svg xmlns="http://www.w3.org/2000/svg" viewBox="0 0 512 512" width="512" height="512">
  <defs>
    <linearGradient id="bgGrad" x1="0%" y1="0%" x2="100%" y2="100%">
      <stop offset="0%" style="stop-color:#1f1a17"/>
      <stop offset="100%" style="stop-color:#2a2220"/>
    </linearGradient>
    <linearGradient id="arrowGrad" x1="0%" y1="100%" x2="0%" y2="0%">
      <stop offset="0%" style="stop-color:#991b1b"/>
      <stop offset="100%" style="stop-color:#c2410c"/>
    </linearGradient>
  </defs>
  
  <rect x="0" y="0" width="512" height="512" rx="96" ry="96" fill="url(#bgGrad)"/>
  <rect x="5" y="5" width="502" height="502" rx="92" ry="92" fill="none" stroke="#3a2c25" stroke-width="1.5"/>
  
  <path d="M256 108 L368 384 L324 384 L300 314 L212 314 L188 384 L144 384 Z" fill="#f5eee7" opacity="0.95"/>
  <path d="M228 278 L284 278 L270 236 L242 236 Z" fill="url(#bgGrad)"/>
  
  <path d="M256 68 L300 136 L274 136 L274 180 L238 180 L238 136 L212 136 Z" fill="url(#arrowGrad)"/>
  
  <circle cx="376" cy="128" r="28" fill="#16a34a" opacity="0.9"/>
  <circle cx="376" cy="128" r="12" fill="#f5eee7" opacity="0.9"/>
</svg>
